<?xml version="1.0" standalone="no"?>
<!DOCTYPE svg PUBLIC "-//W3C//DTD SVG 20010904//EN"
 "http://www.w3.org/TR/2001/REC-SVG-20010904/DTD/svg10.dtd">
<svg version="1.0" xmlns="http://www.w3.org/2000/svg"
 width="122.000000pt" height="122.000000pt" viewBox="0 0 122.000000 122.000000"
 preserveAspectRatio="xMidYMid meet">
<metadata>
Created by potrace 1.11, written by Peter Selinger 2001-2013
</metadata>
<g transform="translate(0.000000,122.000000) scale(0.100000,-0.100000)"
fill="#000000" stroke="none">
<path d="M208 803 c-2 -5 -3 -21 -3 -38 0 -17 -7 -35 -17 -43 -13 -10 -18 -27
-18 -67 0 -57 6 -66 51 -71 33 -4 43 8 45 56 1 19 3 41 3 48 1 9 27 12 93 12
l92 0 -26 -27 c-68 -74 -114 -187 -120 -295 -3 -56 -1 -68 12 -68 11 0 21 20
32 65 35 130 107 243 175 271 36 16 54 18 51 7 -2 -7 13 -148 18 -165 1 -5 2
-17 3 -28 1 -26 41 -28 42 -2 0 9 2 26 4 37 3 11 7 45 10 75 11 104 10 102 53
85 78 -32 164 -160 192 -288 10 -43 17 -57 29 -55 13 3 16 15 14 62 -4 106
-45 213 -114 290 l-29 34 85 1 c90 2 89 2 86 -52 -2 -43 15 -67 47 -65 43 3
52 16 52 74 0 39 -5 56 -18 66 -11 8 -18 26 -18 47 0 19 -5 36 -12 39 -12 4
-16 -13 -12 -55 1 -13 -2 -23 -7 -24 -66 -9 -225 -1 -263 12 -64 22 -140 23
-207 3 -54 -16 -258 -27 -290 -16 -8 2 -13 21 -13 43 0 34 -13 52 -22 32z"/>
<path d="M83 782 c-33 -5 -28 -21 10 -29 30 -6 42 -7 82 -4 32 2 14 27 -22 29
-20 2 -39 4 -42 5 -3 2 -16 1 -28 -1z"/>
<path d="M273 782 c-33 -5 -29 -32 5 -33 56 -3 85 0 94 9 15 15 -54 32 -99 24z"/>
<path d="M925 783 c-66 -12 -71 -14 -53 -27 19 -14 119 -6 118 9 0 12 -38 22
-65 18z"/>
<path d="M1050 763 c0 -7 7 -14 15 -14 8 -1 23 -2 32 -3 10 0 19 7 21 17 3 15
-3 17 -32 15 -22 -1 -36 -7 -36 -15z"/>
</g>
</svg>
